<svg id="Layer_1" xmlns="http://www.w3.org/2000/svg" viewBox="0 0 94 33.2"><style>.st0{fill:#fff}.st1{fill:#90bbdf}</style><path class="st0" d="M4.8 18.2l3.8-4.3 7.7 10.5h5.6l-10-14.1L21.3 0h-5.5l-11 12.2V0H.1v24.4h4.7zM28.2 15.2c0-1.6.4-2.8 1.3-3.8s2.1-1.5 3.6-1.5c1.3 0 2.3.4 3 1.1.7.8 1.1 1.8 1.1 3.1v10.3h4.6V12.8c0-2.2-.6-4-1.8-5.2-1.2-1.3-2.9-1.9-5.1-1.9-3.2 0-5.4 1.3-6.7 3.7V5.8h-4.5v18.7h4.5v-9.3zM47.9 23.4c1.5.8 3.1 1.2 5 1.2 1.6 0 3.1-.3 4.4-.8 1.3-.6 2.5-1.3 3.4-2.4l-2.4-2.5c-.7.7-1.4 1.2-2.3 1.6-.9.4-1.8.5-2.7.5-1.4 0-2.5-.4-3.5-1.1-.9-.9-1.5-1.9-1.8-3.2h13.8v-1.4c0-3.1-.7-5.5-2.2-7.1-1.5-1.7-3.7-2.5-6.7-2.5-1.8 0-3.5.4-4.9 1.2-1.4.8-2.6 1.9-3.4 3.4-.8 1.4-1.2 3.1-1.2 5s.4 3.5 1.2 4.9c.7 1.3 1.8 2.4 3.3 3.2zm1.6-13.1c.9-.8 2-1.2 3.3-1.2 1.4 0 2.6.4 3.4 1.2.9.8 1.3 1.9 1.4 3.3h-9.8c.3-1.4.8-2.5 1.7-3.3zM70.2 13.2c-2.3 0-4 .5-5.2 1.5-1.2 1-1.8 2.4-1.8 4.1 0 1.1.3 2.1.8 3 .5.9 1.3 1.6 2.3 2.1 1 .5 2.1.7 3.4.7 1.3 0 2.5-.2 3.5-.6 1-.4 1.9-1 2.5-1.8v2.3h4.5V12.3c0-2.1-.7-3.7-2-4.9-1.3-1.2-3.2-1.7-5.6-1.7-1.6 0-3 .2-4.2.5-1.2.4-2.5.9-4 1.8l1.6 3.1c1.9-1.2 3.8-1.7 5.5-1.7 1.4 0 2.4.3 3.1.9.7.6 1.1 1.5 1.1 2.5v.5h-5.5zm5.4 4.7c-.1.9-.6 1.7-1.6 2.3-.9.6-2 .9-3.3.9-1 0-1.8-.2-2.4-.7-.6-.5-.9-1.1-.9-1.9 0-.8.3-1.4.9-1.8.6-.4 1.5-.5 2.7-.5h4.7v1.7zM90.7 20.6c-.7 0-1.1-.2-1.5-.5-.3-.4-.5-1-.5-1.8V9.8H94V6.5h-5.3V1.4h-4.5v5.1h-2.7v3.3h2.6V19c0 1.8.5 3.2 1.5 4.2 1 .9 2.3 1.4 3.9 1.4 1.5 0 2.9-.4 4.3-1.2v-3.8c-.9.5-2.5 1-3.1 1z"/><g><path class="st1" d="M0 32.2v.9l94 .1v-3.9z"/></g></svg>